<svg id="Layer_1" data-name="Layer 1" xmlns="http://www.w3.org/2000/svg" viewBox="0 0 500 300"><defs><style>.cls-1{fill:#2a79ff;}.cls-2{fill:#fff;}.cls-3{fill:#ff2a48;}.cls-4{fill:#ededed;}</style></defs><title>en</title><polygon class="cls-1" points="500 95 500 46.08 415.26 95 500 95"/><polygon class="cls-1" points="0 205 0 253.92 84.74 205 0 205"/><polygon class="cls-1" points="0 46.08 0 95 84.74 95 0 46.08"/><polygon class="cls-1" points="305 300 439.81 300 305 222.17 305 300"/><polygon class="cls-1" points="60.19 300 195 300 195 222.17 60.19 300"/><polygon class="cls-1" points="500 253.92 500 205 415.26 205 500 253.92"/><polygon class="cls-1" points="195 0 60.19 0 195 77.83 195 0"/><polygon class="cls-1" points="439.81 0 305 0 305 77.83 439.81 0"/><polygon class="cls-2" points="195 77.83 195 77.83 60.19 0 60.19 0 195 77.83"/><polygon class="cls-2" points="415.26 205 500 253.92 500 253.92 415.26 205 415.26 205"/><polygon class="cls-2" points="305 77.83 439.81 0 439.81 0 305 77.83 305 77.83"/><polygon class="cls-3" points="195 222.17 60.19 300 60.19 300 195 222.17 195 222.17"/><polygon class="cls-3" points="415.26 95 415.26 95 500 46.08 500 46.08 415.26 95"/><polygon class="cls-3" points="84.74 205 84.74 205 0 253.92 0 253.92 84.74 205"/><path class="cls-3" d="M-192.64,431.3A19.85,19.85,0,0,0-205,427h-.19l-164.55,95h40l143.21-82.68A20.09,20.09,0,0,0-192.64,431.3Z" transform="translate(685 -427)"/><path class="cls-3" d="M-520.26,632h-20l-143.21,82.68a20.09,20.09,0,0,0,6.11,8A19.85,19.85,0,0,0-665,727h.19l164.55-95Z" transform="translate(685 -427)"/><polygon class="cls-3" points="315.26 95 479.81 0 479.81 0 315.26 95 315.26 95"/><polygon class="cls-3" points="305 222.17 305 222.17 439.81 300 439.81 300 305 222.17"/><polygon class="cls-3" points="84.74 95 0 46.08 0 46.08 84.74 95 84.74 95"/><path class="cls-3" d="M-677.36,431.3a20.09,20.09,0,0,0-6.11,8A20,20,0,0,0-685,447v3l124.74,72h40Z" transform="translate(685 -427)"/><path class="cls-3" d="M-309.74,632h-40l157.1,90.7a20.09,20.09,0,0,0,6.11-8A20,20,0,0,0-185,707v-3Z" transform="translate(685 -427)"/><polygon class="cls-3" points="380.62 115 340.62 115 320.62 115 300.62 115 285 115 285 112.47 285 89.38 285 0 215 0 215 89.38 215 112.47 215 115 199.38 115 179.38 115 159.38 115 119.38 115 0 115 0 185 119.38 185 159.38 185 159.38 185 179.38 185 199.38 185 215 185 215 187.53 215 210.62 215 300 285 300 285 210.62 285 210.62 285 187.53 285 185 300.62 185 320.62 185 340.62 185 380.62 185 500 185 500 115 380.62 115"/><path class="cls-4" d="M-485.62,612H-685v20h84.74L-685,680.92V707a20,20,0,0,0,1.53,7.68L-540.26,632h40l-164.55,95h40L-490,649.17V727h20V612Z" transform="translate(685 -427)"/><path class="cls-4" d="M-186.53,439.32-329.74,522h-40l164.55-95h-40L-380,504.83V427h-20V542h215V522h-84.74L-185,473.08V447A20,20,0,0,0-186.53,439.32Z" transform="translate(685 -427)"/><path class="cls-4" d="M-304.38,612H-400v25.62h0V727h20V649.17h0L-245.19,727H-205a19.85,19.85,0,0,0,12.36-4.3L-349.74,632h40L-185,704v-23.1L-269.74,632H-185V612Z" transform="translate(685 -427)"/><path class="cls-4" d="M-480,427h-10v77.83L-624.81,427H-665a19.85,19.85,0,0,0-12.36,4.3l157.1,90.7h-40L-685,450v23.1L-600.26,522H-685v20h215V427Z" transform="translate(685 -427)"/></svg>